<svg xmlns="http://www.w3.org/2000/svg" viewBox="0 0 240 240" role="img" aria-label="Henüz mesaj yok">
  <defs>
    <radialGradient id="bnar" cx="42%" cy="34%" r="72%">
      <stop offset="0%" stop-color="#e2415b"/>
      <stop offset="52%" stop-color="#c0223f"/>
      <stop offset="100%" stop-color="#8a1430"/>
    </radialGradient>
    <linearGradient id="bsapka" x1="0" y1="0" x2="0" y2="1">
      <stop offset="0%" stop-color="#3a2030"/>
      <stop offset="100%" stop-color="#241019"/>
    </linearGradient>
  </defs>

  <!-- yumuşak zemin halkası -->
  <ellipse cx="120" cy="210" rx="78" ry="14" fill="#c0223f" opacity=".10"/>

  <!-- konuşma balonu -->
  <g>
    <path d="M150 40 H205 a16 16 0 0 1 16 16 v34 a16 16 0 0 1 -16 16 H176 l-14 16 v-16 H150 a16 16 0 0 1 -16 -16 V56 a16 16 0 0 1 16 -16 Z" fill="#fff" stroke="#ecd8cf" stroke-width="2"/>
    <circle cx="165" cy="73" r="5" fill="#e23b56"/>
    <circle cx="183" cy="73" r="5" fill="#cf9b46"/>
    <circle cx="201" cy="73" r="5" fill="#a51d35"/>
  </g>

  <!-- nar maskot -->
  <g transform="translate(38 78) scale(0.62)">
    <circle cx="150" cy="430" r="16" fill="#ef3d5b"/>
    <circle cx="362" cy="446" r="13" fill="#ef3d5b"/>
    <path d="M256 150 C360 150 410 232 410 312 C410 408 340 462 256 462 C172 462 102 408 102 312 C102 232 152 150 256 150 Z" fill="url(#bnar)"/>
    <path d="M168 218 C150 250 146 286 156 318 C120 286 132 232 168 218 Z" fill="#ff97ab" opacity=".35"/>
    <ellipse cx="256" cy="176" rx="118" ry="30" fill="url(#bsapka)"/>
    <path d="M183 168 C183 110 200 78 256 78 C312 78 329 110 329 168 Z" fill="url(#bsapka)"/>
    <rect x="183" y="140" width="146" height="22" rx="11" fill="#cf9b46"/>
    <circle cx="212" cy="300" r="20" fill="#fff"/>
    <circle cx="300" cy="300" r="20" fill="#fff"/>
    <circle cx="216" cy="304" r="10" fill="#2e171c"/>
    <circle cx="304" cy="304" r="10" fill="#2e171c"/>
    <circle cx="178" cy="338" r="16" fill="#ff7d8f" opacity=".5"/>
    <circle cx="334" cy="338" r="16" fill="#ff7d8f" opacity=".5"/>
    <path d="M226 348 Q256 376 286 348" fill="none" stroke="#2e171c" stroke-width="9" stroke-linecap="round"/>
  </g>
</svg>
